<svg id="Camada_1" data-name="Camada 1" xmlns="http://www.w3.org/2000/svg" viewBox="0 0 69.47 70.67"><defs><style>.cls-1{fill:#878787;}</style></defs><title>01_goose_fav_Icon_site</title><path class="cls-1" d="M588.16,290.76c0-15.49-13.13-22.46-22.46-22.46-6,0-14.1,2.37-18.7,9a2,2,0,1,0,3.29,2.28c3.73-5.4,10.4-7.32,15.41-7.32,7.67,0,18.46,5.73,18.46,18.46S568.69,319,554.63,325l1.09-3.45a2,2,0,0,0-3.81-1.21l-2.47,7.8a2,2,0,0,0,1.3,2.51l7.8,2.47a1.86,1.86,0,0,0,.61.1,2,2,0,0,0,.6-3.91l-2.89-.92C572.17,321.6,588.16,305,588.16,290.76Z" transform="translate(-518.69 -262.51)"/><path class="cls-1" d="M546.44,322c-11.51-6.82-23.75-20.09-23.75-31.26,0-12.73,10.79-18.46,18.46-18.46l.54,0-2.35,2.35a2,2,0,0,0,0,2.83,2,2,0,0,0,1.41.58,2,2,0,0,0,1.42-.58l5.78-5.79a2,2,0,0,0,0-2.83l-5.78-5.78a2,2,0,1,0-2.83,2.82l2.4,2.4-.59,0c-9.33,0-22.46,7-22.46,22.46,0,12.78,12.93,27.13,25.71,34.7a2,2,0,0,0,2-3.44Z" transform="translate(-518.69 -262.51)"/></svg>