<svg id="Camada_1" data-name="Camada 1" xmlns="http://www.w3.org/2000/svg" viewBox="0 0 333.22 70.67"><defs><style>.cls-1{fill:#fff;}</style></defs><title>01_goose_logo_site</title><path class="cls-1" d="M588.16,290.76c0-15.49-13.13-22.46-22.46-22.46-6,0-14.1,2.37-18.7,9a2,2,0,1,0,3.29,2.28c3.73-5.4,10.4-7.32,15.41-7.32,7.67,0,18.46,5.73,18.46,18.46S568.69,319,554.63,325l1.09-3.45a2,2,0,0,0-3.81-1.21l-2.47,7.8a2,2,0,0,0,1.3,2.51l7.8,2.47a1.86,1.86,0,0,0,.61.1,2,2,0,0,0,.6-3.91l-2.89-.92C572.17,321.6,588.16,305,588.16,290.76Z" transform="translate(-254.94 -262.51)"/><path class="cls-1" d="M546.44,322c-11.51-6.82-23.75-20.09-23.75-31.26,0-12.73,10.79-18.46,18.46-18.46l.54,0-2.35,2.35a2,2,0,0,0,0,2.83,2,2,0,0,0,1.41.58,2,2,0,0,0,1.42-.58l5.78-5.79a2,2,0,0,0,0-2.83l-5.78-5.78a2,2,0,1,0-2.83,2.82l2.4,2.4-.59,0c-9.33,0-22.46,7-22.46,22.46,0,12.78,12.93,27.13,25.71,34.7a2,2,0,0,0,2-3.44Z" transform="translate(-254.94 -262.51)"/><path class="cls-1" d="M254.94,285.27a4.14,4.14,0,0,1,8.27,0v25.86H277c2.36,0,4.28,1.2,4.28,3.47s-1.92,3.48-4.28,3.48H259.78c-2.92,0-4.84-1.16-4.84-4.84Z" transform="translate(-254.94 -262.51)"/><path class="cls-1" d="M302.47,280.94c11.89,0,18.35,7.91,18.35,18.54,0,10.23-5.95,19.46-18.35,19.46-13,0-18.35-8.47-18.35-19.46C284.12,288.85,290.58,280.94,302.47,280.94Zm0,31.34c7.51,0,10.08-5.84,10.08-12.8s-3.33-11.89-10.08-11.89-10.08,4.94-10.08,11.89S294.71,312.28,302.47,312.28Z" transform="translate(-254.94 -262.51)"/><path class="cls-1" d="M343.35,315.86c-.86,2.37-2.47,2.88-5,2.88s-4.19-.51-5-2.88l-10.18-28.62a7,7,0,0,1-.51-2.42c0-2.78,2.12-3.68,4.18-3.68,2.22,0,3.43,1.16,4.19,3.63l7.46,24.69h.1l7.76-24.69c.76-2.47,2-3.63,3.88-3.63,2.07,0,4.18.9,4.18,3.68a7.23,7.23,0,0,1-.5,2.42Z" transform="translate(-254.94 -262.51)"/><path class="cls-1" d="M358.82,286.63c0-3.68,1.92-4.84,4.84-4.84h19.4c2.42,0,4.19.71,4.19,3.33s-1.77,3.32-4.19,3.32h-16v7.87h14c2.16,0,3.88.6,3.88,3.17s-1.72,3.18-3.88,3.18h-14v8.77h16.38c2.42,0,4.18.7,4.18,3.32s-1.76,3.33-4.18,3.33H363.66c-2.92,0-4.84-1.16-4.84-4.84Z" transform="translate(-254.94 -262.51)"/><path class="cls-1" d="M393.15,285.27a4.13,4.13,0,0,1,8.26,0v25.86h13.81c2.37,0,4.28,1.2,4.28,3.47s-1.91,3.48-4.28,3.48H398c-2.92,0-4.83-1.16-4.83-4.84Z" transform="translate(-254.94 -262.51)"/><path class="cls-1" d="M440.67,280.94c11.9,0,18.35,7.91,18.35,18.54,0,10.23-5.95,19.46-18.35,19.46-13,0-18.34-8.47-18.34-19.46C422.33,288.85,428.78,280.94,440.67,280.94Zm0,31.34c7.51,0,10.08-5.84,10.08-12.8s-3.32-11.89-10.08-11.89-10.08,4.94-10.08,11.89S432.91,312.28,440.67,312.28Z" transform="translate(-254.94 -262.51)"/><path class="cls-1" d="M498.74,316a2.75,2.75,0,0,1-2.83,2.78c-2.37,0-3-1.47-3.52-4.69-2.37,3-5.65,4.89-10.79,4.89-12.8,0-17.69-8.82-17.69-19,0-12.25,7.66-19,18.9-19,9.17,0,14.06,5.49,14.06,8.71,0,2.88-2.12,3.63-3.88,3.63-4.08,0-2.57-5.69-10.63-5.69-5.7,0-10.18,3.73-10.18,12.9,0,7.16,3.52,12.1,10.28,12.1a8.36,8.36,0,0,0,8.62-7.41h-5.4c-1.76,0-3.73-.66-3.73-3.18a2.91,2.91,0,0,1,3.23-3.17h10.18c2.42,0,3.38,1.21,3.38,3.47Z" transform="translate(-254.94 -262.51)"/></svg>